<svg xmlns="http://www.w3.org/2000/svg" xmlns:xlink="http://www.w3.org/1999/xlink" viewBox="0,0,256,256" width="50px" height="50px" fill-rule="nonzero"><g fill="#ffffff" fill-rule="nonzero" stroke="none" stroke-width="1" stroke-linecap="butt" stroke-linejoin="miter" stroke-miterlimit="10" stroke-dasharray="" stroke-dashoffset="0" font-family="none" font-weight="none" font-size="none" text-anchor="none" style="mix-blend-mode: normal"><g transform="scale(5.12,5.12)"><path d="M35,6c-0.77734,0 -1.52734,0.07813 -2.25,0.20703c-0.54297,0.09375 -0.90625,0.61328 -0.8125,1.15625c0.09375,0.54688 0.61328,0.91016 1.15625,0.81641c0.63281,-0.11328 1.26563,-0.17969 1.90625,-0.17969c6.08594,0 11,4.91406 11,11c0,1.31641 -0.24219,2.57422 -0.67187,3.75391c-0.13281,0.33984 -0.07422,0.72266 0.15625,1.00391c0.23438,0.28125 0.59766,0.41406 0.95703,0.34766c0.35938,-0.06641 0.65234,-0.32422 0.76563,-0.66797c0.50391,-1.38281 0.79297,-2.87109 0.79297,-4.4375c0,-7.16797 -5.83203,-13 -13,-13zM35,12c-0.42578,0 -0.82812,0.04297 -1.21094,0.10938c-0.54297,0.09766 -0.91016,0.61328 -0.8125,1.16016c0.09375,0.54297 0.61328,0.90625 1.15625,0.8125c0.29297,-0.05078 0.58203,-0.08203 0.86719,-0.08203c2.77344,0 5,2.22656 5,5c0,0.59766 -0.10937,1.16797 -0.30859,1.70703c-0.1875,0.51953 0.08203,1.09375 0.60156,1.28125c0.51953,0.1875 1.09375,-0.07812 1.28125,-0.59766c0.26953,-0.74219 0.42578,-1.54687 0.42578,-2.39062c0,-3.85547 -3.14453,-7 -7,-7zM21.17578,12.40625c-3.21094,-0.0625 -8.05469,2.47266 -12.37109,6.70703c-4.29297,4.29297 -6.80469,8.79297 -6.80469,12.66797c0,7.53125 9.62891,12.03125 19.15234,12.03125c12.34766,0 20.61328,-7.11328 20.61328,-12.76562c0,-3.45312 -2.92969,-5.33984 -5.54687,-6.17578c-0.625,-0.21094 -1.04297,-0.3125 -0.73047,-1.15234c0.20703,-0.5 0.51172,-1.45312 0.51172,-2.71875c0,-1.4375 -1,-2.68359 -3,-2.90625c-0.99219,-0.10937 -5,-0.09375 -7.66016,1.01953c0,0 -1.46875,0.63281 -1.05078,-0.51953c0.73438,-2.30078 0.62891,-4.1875 -0.52344,-5.23437c-0.625,-0.62891 -1.51562,-0.93359 -2.58984,-0.95312zM20.3125,23.93359c7.80469,0 14.12891,3.98047 14.12891,8.89453c0,4.91016 -6.32422,8.89063 -14.12891,8.89063c-7.80078,0 -14.125,-3.98047 -14.125,-8.89062c0,-4.91406 6.32422,-8.89453 14.125,-8.89453zM19.26563,26.02344c-3.01953,0.02344 -5.95312,1.67578 -7.22656,4.22266c-1.57031,3.23828 -0.10547,6.79688 3.66016,7.94531c3.76563,1.25391 8.26172,-0.62891 9.83203,-4.07812c1.56641,-3.34375 -0.41797,-6.89844 -4.18359,-7.83594c-0.6875,-0.17969 -1.38672,-0.25781 -2.08203,-0.25391zM20.82422,30.25c0.57813,0 1.04688,0.46484 1.04688,1.04297c0,0.57813 -0.46875,1.04688 -1.04687,1.04688c-0.57812,0 -1.04687,-0.46875 -1.04687,-1.04687c0,-0.57812 0.46875,-1.04297 1.04688,-1.04297zM16.41797,31.29297c0.32813,0.00391 0.65625,0.05469 0.96484,0.16016c1.33984,0.42578 1.75,1.69531 0.92578,2.75391c-0.71875,1.05859 -2.36328,1.58594 -3.60156,1.05859c-1.23047,-0.52734 -1.53906,-1.80078 -0.82031,-2.75c0.53906,-0.79687 1.54297,-1.23437 2.53125,-1.22266z"></path></g></g></svg>